<svg width="33" height="33" viewBox="0 0 33 33" fill="none" xmlns="http://www.w3.org/2000/svg">
<path d="M12.375 30.25H20.625C27.5 30.25 30.25 27.5 30.25 20.625V12.375C30.25 5.5 27.5 2.75 20.625 2.75H12.375C5.5 2.75 2.75 5.5 2.75 12.375V20.625C2.75 27.5 5.5 30.25 12.375 30.25Z" stroke="black" stroke-width="1.5" stroke-linecap="round" stroke-linejoin="round"/>
<path d="M23.375 16.28H19.69C18.7138 16.28 18.0538 15.5375 18.0538 14.6437V12.595C18.0538 11.7012 18.7138 10.9587 19.69 10.9587H21.7388C22.6325 10.9587 23.375 11.7012 23.375 12.595V16.28ZM23.375 16.28C23.375 20.1162 22.66 20.7625 20.5013 22.0412M14.9325 16.28H11.2475C10.2713 16.28 9.61127 15.5375 9.61127 14.6437V12.595C9.61127 11.7012 10.2713 10.9587 11.2475 10.9587H13.2963C14.19 10.9587 14.9325 11.7012 14.9325 12.595V16.28ZM14.9325 16.28C14.9325 20.1162 14.2175 20.7625 12.0588 22.0412" stroke="black" stroke-width="1.5" stroke-linecap="round" stroke-linejoin="round"/>
</svg>
